<?xml version="1.0" standalone="no"?><!DOCTYPE svg PUBLIC "-//W3C//DTD SVG 1.1//EN" "http://www.w3.org/Graphics/SVG/1.1/DTD/svg11.dtd"><svg t="1650556953759" class="icon" viewBox="0 0 1024 1024" version="1.1" xmlns="http://www.w3.org/2000/svg" p-id="4003" xmlns:xlink="http://www.w3.org/1999/xlink" width="200" height="200"><defs><style type="text/css"></style></defs><path d="M519.470164 514.350164m-486.819672 0a486.819672 486.819672 0 1 0 973.639344 0 486.819672 486.819672 0 1 0-973.639344 0Z" fill="#3EBBDD" p-id="4004"></path><path d="M43.142295 413.628852c15.779672-74.97023 48.849836-143.527869 94.778754-201.442622h197.229115a33.238033 33.238033 0 0 1 33.238033 33.238032v0.671476a33.238033 33.238033 0 0 1-33.238033 33.238032h-34.245246a33.238033 33.238033 0 0 0-33.238033 33.238033v0.671476a33.238033 33.238033 0 0 0 33.238033 33.238032h101.392787a33.238033 33.238033 0 0 1 33.238033 33.238033v0.671476a33.238033 33.238033 0 0 1-33.238033 33.238032H43.142295zM653.429508 631.858361a33.238033 33.238033 0 0 0-33.238033 33.238032v0.671476a33.238033 33.238033 0 0 0 33.238033 33.238033h34.245246a33.238033 33.238033 0 0 1 33.238033 33.238032v0.671476a33.238033 33.238033 0 0 1-33.238033 33.238033h-101.392787a33.238033 33.238033 0 0 0-33.238033 33.238032v0.671476a33.238033 33.238033 0 0 0 33.238033 33.238033h300.804197a485.59423 485.59423 0 0 0 104.850885-201.442623H653.429508zM771.777049 346.481311h-168.876065a49.857049 49.857049 0 0 1-49.85705-49.857049v-1.007213a49.857049 49.857049 0 0 1 49.85705-49.857049h17.290491v-17.290492a49.857049 49.857049 0 0 1 49.85705-49.857049h34.580983a49.857049 49.857049 0 0 1 49.857049 49.857049v17.290492h17.290492a49.857049 49.857049 0 0 1 49.857049 49.857049v1.007213a49.857049 49.857049 0 0 1-49.857049 49.857049z" fill="#FFFFFF" p-id="4005"></path><path d="M771.777049 363.268197h-168.876065a66.727869 66.727869 0 0 1-66.643935-66.643935c0-37.753705 29.897443-67.651148 66.643935-67.651147l0.503606-0.503607a66.727869 66.727869 0 0 1 66.643935-66.643934h34.580983a66.727869 66.727869 0 0 1 66.643935 66.643934l0.503606 0.503607a66.727869 66.727869 0 0 1 66.643935 66.643934c0 37.753705-29.897443 67.651148-66.643935 67.651148z m-168.876065-100.721312c-18.230557 0-33.070164 14.839607-33.070164 33.070164 0 19.23777 14.839607 34.077377 33.070164 34.077377h168.876065c18.230557 0 33.070164-14.839607 33.070164-33.070164 0-19.23777-14.839607-34.077377-33.070164-34.077377h-17.290492a16.786885 16.786885 0 0 1-16.786885-16.786885v-17.290492c0-18.230557-14.839607-33.070164-33.070164-33.070164h-34.580983c-18.230557 0-33.070164 14.839607-33.070164 33.070164v17.290492a16.786885 16.786885 0 0 1-16.786886 16.786885h-17.290491z" fill="#000000" p-id="4006"></path><path d="M402.465574 715.792787h-168.876066a49.857049 49.857049 0 0 1-49.857049-49.857049v-1.007213a49.857049 49.857049 0 0 1 49.857049-49.85705h17.290492v-17.290491a49.857049 49.857049 0 0 1 49.857049-49.85705h34.580984a49.857049 49.857049 0 0 1 49.857049 49.85705v17.290491h17.290492a49.857049 49.857049 0 0 1 49.857049 49.85705v1.007213a49.857049 49.857049 0 0 1-49.857049 49.857049z" fill="#FFFFFF" p-id="4007"></path><path d="M402.465574 732.579672h-168.876066a66.727869 66.727869 0 0 1-66.643934-66.643934c0-37.753705 29.897443-67.651148 66.643934-67.651148l0.503607-0.503606a66.727869 66.727869 0 0 1 66.643934-66.643935h34.580984a66.727869 66.727869 0 0 1 66.643934 66.643935l0.503607 0.503606a66.727869 66.727869 0 0 1 66.643934 66.643935c0 37.753705-29.897443 67.651148-66.643934 67.651147z m-168.876066-100.721311c-18.230557 0-33.070164 14.839607-33.070164 33.070164 0 19.23777 14.839607 34.077377 33.070164 34.077377h168.876066c18.230557 0 33.070164-14.839607 33.070164-33.070164 0-19.23777-14.839607-34.077377-33.070164-34.077377h-17.290492a16.786885 16.786885 0 0 1-16.786885-16.786886v-17.290491c0-18.230557-14.839607-33.070164-33.070164-33.070164h-34.580984c-18.230557 0-33.070164 14.839607-33.070164 33.070164v17.290491a16.786885 16.786885 0 0 1-16.786885 16.786886h-17.290492zM587.121311 396.841967h33.070164v33.573771h-33.070164zM569.83082 463.989508h33.070164v33.573771h-33.070164zM654.268852 396.841967h33.070164v33.573771h-33.070164zM636.978361 463.989508h33.070164v33.573771h-33.070164zM721.416393 396.841967h33.070164v33.573771h-33.070164zM704.125902 463.989508h33.070164v33.573771h-33.070164zM267.650098 866.874754a16.786885 16.786885 0 0 1-14.990688-24.290623l4.63318-9.283147h-6.41259a16.803672 16.803672 0 0 1-15.024262-24.30741l16.786885-33.573771a16.786885 16.786885 0 0 1 30.031738 15.024263l-4.633181 9.283147h6.41259a16.803672 16.803672 0 0 1 15.024263 24.30741l-16.786885 33.57377c-2.954492 5.87541-8.880262 9.266361-15.04105 9.266361zM368.37141 866.874754a16.786885 16.786885 0 0 1-14.990689-24.290623l4.633181-9.283147h-6.412591a16.803672 16.803672 0 0 1-15.024262-24.30741l16.786885-33.573771a16.786885 16.786885 0 0 1 30.031738 15.024263l-4.63318 9.283147h6.41259a16.803672 16.803672 0 0 1 15.024262 24.30741l-16.786885 33.57377c-2.954492 5.87541-8.880262 9.266361-15.041049 9.266361zM183.732459 396.841967h33.573771v33.573771h-33.573771zM804.847213 615.071475h33.573771v33.573771h-33.573771z" fill="#000000" p-id="4008"></path><path d="M921.364984 817.42059c3.021639-3.995279 5.908984-8.091279 8.813114-12.187279 2.199082-3.105574 4.482098-6.144 6.614033-9.283147 4.935344-7.285508 9.652459-14.738885 14.201705-22.292984 1.29259-2.165508 2.501246-4.36459 3.777049-6.546885 3.441311-5.892197 6.781902-11.851541 9.988197-17.89482 1.29259-2.434098 2.53482-4.90177 3.777049-7.369442a530.583082 530.583082 0 0 0 12.052984-25.348197c2.887344-6.546885 5.60682-13.177705 8.208787-19.858885 0.772197-1.980852 1.594754-3.928131 2.333377-5.925771a498.234754 498.234754 0 0 0 16.753311-53.634098c0.100721-0.386098 0.235016-0.772197 0.318951-1.175082v-0.26859c9.652459-38.861639 14.856393-79.469115 14.856393-121.268459 0-277.688656-225.917902-503.606557-503.606557-503.606558-159.357902 0-301.559607 74.48341-393.921049 190.380066-0.235016 0.251803-0.570754 0.369311-0.788984 0.637902-1.913705 2.400525-3.642754 4.935344-5.506098 7.369442a506.158164 506.158164 0 0 0-15.108197 20.815738c-2.635541 3.844197-5.170361 7.755541-7.70518 11.683672-2.148721 3.34059-4.36459 6.647607-6.446164 10.038557a504.546623 504.546623 0 0 0-25.767869 47.557246c-0.822557 1.712262-1.56118 3.474885-2.350164 5.203935-3.021639 6.563672-5.92577 13.194492-8.67882 19.892459-0.973639 2.366951-1.896918 4.767475-2.820196 7.151213a493.484066 493.484066 0 0 0-15.108197 44.820984c-0.80577 2.80341-1.645115 5.590033-2.383738 8.393442-1.82977 6.849049-3.458098 13.765246-5.002491 20.715017-0.352525 1.594754-0.822557 3.172721-1.158296 4.767475v0.201443a503.102951 503.102951 0 0 0-10.861114 103.977967c0 277.688656 225.917902 503.606557 503.606557 503.606557 151.249836 0 287.022164-67.113967 379.41718-173.005639 0.251803-0.251803 0.621115-0.369311 0.856132-0.637902 1.762623-2.031213 3.357377-4.163148 5.086426-6.227934 2.518033-2.988066 4.985705-6.026492 7.43659-9.081705 3.088787-3.860984 6.160787-7.688393 9.115279-11.599738zM49.437377 514.350164c0-28.655213 2.719475-56.672525 7.65482-83.934426h93.066492v-33.573771H64.310557a469.629902 469.629902 0 0 1 32.297968-87.57718c0.587541-1.208656 1.225443-2.366951 1.82977-3.55882 2.786623-5.60682 5.623607-11.163279 8.628459-16.65259 1.56118-2.85377 3.256656-5.640393 4.868197-8.477377 2.115148-3.676328 4.196721-7.38623 6.41259-11.012197 2.53482-4.129574 5.187148-8.158426 7.839475-12.204065 1.443672-2.199082 2.836984-4.431738 4.297443-6.597246 3.239869-4.767475 6.614033-9.451016 10.038557-14.100984 1.007213-1.376525 1.997639-2.786623 3.02164-4.163147 0.906492-1.191869 1.863344-2.333377 2.769836-3.525246h188.818885c9.081705 0 16.451148 7.369443 16.451148 17.122623a16.451148 16.451148 0 0 1-16.451148 16.451147h-34.245246c-27.580852 0-50.024918 22.444066-50.024918 50.696394a50.075279 50.075279 0 0 0 50.024918 50.024918h101.392787c9.081705 0 16.451148 7.369443 16.451148 17.122623a16.451148 16.451148 0 0 1-16.451148 16.451147h-151.417705v33.573771h151.417705c27.580852 0 50.024918-22.444066 50.024918-50.696394a50.075279 50.075279 0 0 0-50.024918-50.024918h-101.392787c-9.081705 0-16.451148-7.369443-16.451147-17.122623a16.451148 16.451148 0 0 1 16.451147-16.451147h34.245246c27.580852 0 50.024918-22.444066 50.024918-50.696394a50.075279 50.075279 0 0 0-50.024918-50.024918h-160.532984c85.915279-92.831475 208.67777-151.081967 344.852984-151.081967 259.172721 0 470.032787 210.860066 470.032787 470.032787 0 34.580984-3.860984 68.255475-10.978623 100.721311h-106.529574v33.573771h97.850754l-0.570754 2.031213c-1.51082 5.002492-3.189508 9.954623-4.868197 14.889967-0.839344 2.450885-1.628328 4.935344-2.501245 7.369443-1.930492 5.371803-4.028852 10.676459-6.144 15.981115-0.772197 1.930492-1.494033 3.894557-2.299804 5.808262-2.467672 5.92577-5.12 11.767607-7.822688 17.592656-0.587541 1.275803-1.124721 2.568393-1.729049 3.827409-3.055213 6.41259-6.295082 12.741246-9.652459 19.019541l-1.074361 2.081574a475.40459 475.40459 0 0 1-11.834754 20.664656l-0.369312 0.570754a462.814426 462.814426 0 0 1-11.985836 18.65023c-3.407738 5.036066-6.966557 9.954623-10.558951 14.856393-0.889705 1.208656-1.729049 2.467672-2.618754 3.659541-3.810623 5.086426-7.772328 10.055344-11.784393 14.973902l-2.333377 2.937705c-0.822557 1.007213-1.712262 1.947279-2.551607 2.954491H586.281967c-9.081705 0-16.451148-7.369443-16.451147-17.122623a16.451148 16.451148 0 0 1 16.451147-16.451147h101.392787c27.580852 0 50.024918-22.444066 50.024918-50.696394a50.075279 50.075279 0 0 0-50.024918-50.024918h-34.245246c-9.081705 0-16.451148-7.369443-16.451147-17.122623a16.451148 16.451148 0 0 1 16.451147-16.451147h117.843935v-33.573771h-117.843935c-27.580852 0-50.024918 22.444066-50.024918 50.696394a50.075279 50.075279 0 0 0 50.024918 50.024918h34.245246c9.081705 0 16.451148 7.369443 16.451148 17.122623a16.451148 16.451148 0 0 1-16.451148 16.451147h-101.392787c-27.580852 0-50.024918 22.444066-50.024918 50.696394a50.075279 50.075279 0 0 0 50.024918 50.024918h261.690754c-84.807344 82.994361-200.754361 134.295082-328.502557 134.295082-259.172721 0-470.032787-210.860066-470.032787-470.032787z" fill="#000000" p-id="4009"></path></svg>